# xmcd CD database file
#
# Track frame offsets:
#	187
#	21777
#	41070
#	62627
#
# Disc length: 1091 seconds
#
# Revision: 0
# Processed by: cddbd v1.5.1PL0 Copyright (c) Steve Scherf et al.
# Submitted via: CDex 1.51
#
DISCID=2d044104
DTITLE=小泉今日子 - 月ひとしずく
DYEAR=1994
DGENRE=JPop
TTITLE0=月ひとしずく
TTITLE1=ルナシーな気分にひかれてる
TTITLE2=月ひとしずく (オリジナル・カラオケ)
TTITLE3=ルナシーな気分にひかれてる (オリジナル・カラオケ)
EXTD=YEAR: 1994
EXTT0=
EXTT1=
EXTT2=
EXTT3=
PLAYORDER=
